<?xml version="1.0" encoding="UTF-8"?>
<svg xmlns="http://www.w3.org/2000/svg" xmlns:xlink="http://www.w3.org/1999/xlink" width="150pt" height="150pt" viewBox="0 0 150 150" version="1.1">
<g id="surface629630">
<path style=" stroke:none;fill-rule:nonzero;fill:rgb(12.54902%,76.078431%,5.490196%);fill-opacity:1;" d="M 135.820312 6.972656 C 135.257812 6.351562 134.449219 6 133.605469 6 L 16.394531 6 C 15.550781 6 14.742188 6.351562 14.179688 6.972656 C 13.605469 7.59375 13.324219 8.425781 13.40625 9.269531 L 23.964844 127.546875 C 24.070312 128.789062 24.9375 129.820312 26.132812 130.171875 L 74.167969 143.882812 C 74.425781 143.964844 74.707031 144 74.988281 144 C 75.269531 144 75.539062 143.964844 75.808594 143.882812 L 123.878906 130.171875 C 125.074219 129.820312 125.929688 128.789062 126.046875 127.546875 L 136.59375 9.269531 C 136.675781 8.425781 136.394531 7.59375 135.820312 6.972656 Z M 110.542969 47.753906 L 54.105469 47.753906 L 55.453125 63.023438 L 109.183594 63.023438 L 105.152344 108.152344 L 74.976562 117.269531 L 74.683594 117.175781 L 44.859375 108.140625 L 43.230469 89.753906 L 57.84375 89.753906 L 58.476562 96.890625 L 75.152344 100.382812 L 91.523438 96.890625 L 93.269531 77.578125 L 42.140625 77.578125 L 38.167969 33.164062 L 111.84375 33.164062 Z M 110.542969 47.753906 "/>
</g>
</svg>
