<?xml version="1.0" encoding="UTF-8"?>
<svg xmlns="http://www.w3.org/2000/svg" xmlns:xlink="http://www.w3.org/1999/xlink" width="150pt" height="150pt" viewBox="0 0 150 150" version="1.1">
<g id="surface632972">
<path style=" stroke:none;fill-rule:nonzero;fill:rgb(12.54902%,76.078431%,5.490196%);fill-opacity:1;" d="M 129.089844 83.40625 C 123.847656 83.433594 119.308594 84.691406 115.5 86.566406 C 114.109375 83.789062 112.699219 81.34375 112.460938 79.527344 C 112.183594 77.40625 111.863281 76.140625 112.195312 73.609375 C 112.53125 71.082031 113.992188 67.503906 113.96875 67.234375 C 113.949219 66.96875 113.644531 65.683594 110.617188 65.65625 C 107.59375 65.636719 105.007812 66.238281 104.703125 67.039062 C 104.398438 67.835938 103.816406 69.632812 103.453125 71.507812 C 102.925781 74.25 97.417969 84.03125 94.289062 89.144531 C 93.265625 87.148438 92.398438 85.390625 92.21875 83.996094 C 91.941406 81.875 91.621094 80.609375 91.953125 78.082031 C 92.285156 75.550781 93.75 71.972656 93.726562 71.707031 C 93.703125 71.4375 93.398438 70.152344 90.375 70.128906 C 87.351562 70.105469 84.765625 70.710938 84.460938 71.507812 C 84.152344 72.304688 83.828125 74.171875 83.210938 75.976562 C 82.589844 77.785156 75.269531 94.09375 73.351562 98.320312 C 72.375 100.476562 71.527344 102.207031 70.925781 103.390625 C 70.921875 103.386719 70.921875 103.382812 70.921875 103.382812 C 70.921875 103.382812 70.886719 103.460938 70.820312 103.597656 C 70.308594 104.601562 70.003906 105.160156 70.003906 105.160156 C 70.003906 105.160156 70.003906 105.167969 70.011719 105.179688 C 69.601562 105.917969 69.167969 106.605469 68.953125 106.605469 C 68.800781 106.605469 68.5 104.636719 69.019531 101.941406 C 70.105469 96.28125 72.722656 87.457031 72.699219 87.152344 C 72.6875 86.996094 73.183594 85.460938 70.988281 84.652344 C 68.855469 83.875 68.09375 85.175781 67.898438 85.179688 C 67.710938 85.183594 67.570312 85.636719 67.570312 85.636719 C 67.570312 85.636719 69.949219 75.714844 63.03125 75.714844 C 58.714844 75.714844 52.726562 80.441406 49.773438 84.726562 C 47.914062 85.738281 43.929688 87.914062 39.703125 90.238281 C 38.078125 91.128906 36.421875 92.039062 34.851562 92.90625 C 34.742188 92.789062 34.636719 92.671875 34.527344 92.554688 C 26.144531 83.609375 10.652344 77.285156 11.308594 65.265625 C 11.550781 60.894531 13.066406 49.386719 41.082031 35.425781 C 64.027344 23.992188 82.402344 27.136719 85.574219 34.113281 C 90.109375 44.074219 75.757812 62.59375 51.925781 65.265625 C 42.847656 66.28125 38.066406 62.761719 36.875 61.453125 C 35.625 60.070312 35.4375 60.007812 34.972656 60.269531 C 34.210938 60.691406 34.691406 61.910156 34.972656 62.636719 C 35.683594 64.488281 38.601562 67.773438 43.582031 69.40625 C 47.960938 70.84375 58.621094 71.632812 71.515625 66.644531 C 85.953125 61.058594 97.226562 45.523438 93.917969 32.535156 C 90.550781 19.324219 68.648438 14.984375 47.921875 22.347656 C 35.585938 26.730469 22.234375 33.609375 12.628906 42.589844 C 1.210938 53.269531 -0.605469 62.5625 0.144531 66.445312 C 2.8125 80.242188 21.828125 89.230469 29.445312 95.890625 C 29.070312 96.097656 28.714844 96.289062 28.394531 96.46875 C 24.574219 98.359375 10.078125 105.945312 6.453125 113.960938 C 2.339844 123.054688 7.105469 129.578125 10.265625 130.457031 C 20.046875 133.179688 30.085938 128.28125 35.476562 120.238281 C 40.871094 112.195312 40.210938 101.722656 37.738281 96.9375 C 37.707031 96.878906 37.671875 96.820312 37.640625 96.761719 C 38.628906 96.175781 39.632812 95.585938 40.628906 95 C 42.574219 93.859375 44.480469 92.796875 46.136719 91.894531 C 45.210938 94.429688 44.53125 97.472656 44.179688 101.867188 C 43.765625 107.03125 45.878906 113.703125 48.648438 116.328125 C 49.867188 117.484375 51.332031 117.511719 52.261719 117.511719 C 55.484375 117.511719 56.953125 114.832031 58.570312 111.660156 C 60.558594 107.773438 62.320312 103.246094 62.320312 103.246094 C 62.320312 103.246094 60.109375 115.472656 66.132812 115.472656 C 68.324219 115.472656 70.53125 112.625 71.515625 111.175781 C 71.519531 111.191406 71.519531 111.199219 71.519531 111.199219 C 71.519531 111.199219 71.578125 111.109375 71.6875 110.914062 C 71.914062 110.566406 72.046875 110.347656 72.046875 110.347656 C 72.046875 110.347656 72.050781 110.320312 72.058594 110.28125 C 72.9375 108.753906 74.894531 105.261719 77.828125 99.5 C 81.617188 92.0625 85.253906 82.742188 85.253906 82.742188 C 85.253906 82.742188 85.59375 85.023438 86.699219 88.789062 C 87.351562 91.003906 88.738281 93.457031 89.828125 95.804688 C 88.949219 97.027344 88.410156 97.726562 88.410156 97.726562 C 88.410156 97.726562 88.414062 97.738281 88.425781 97.761719 C 87.722656 98.695312 86.933594 99.699219 86.109375 100.683594 C 83.117188 104.246094 79.554688 108.316406 79.078125 109.492188 C 78.515625 110.875 78.648438 111.894531 79.734375 112.710938 C 80.527344 113.308594 81.9375 113.398438 83.414062 113.300781 C 86.101562 113.121094 87.996094 112.453125 88.929688 112.046875 C 90.382812 111.535156 92.078125 110.722656 93.667969 109.554688 C 96.601562 107.398438 98.371094 104.308594 98.203125 100.222656 C 98.113281 97.96875 97.390625 95.734375 96.484375 93.628906 C 96.75 93.242188 97.015625 92.859375 97.285156 92.464844 C 101.910156 85.699219 105.496094 78.269531 105.496094 78.269531 C 105.496094 78.269531 105.835938 80.550781 106.945312 84.316406 C 107.503906 86.222656 108.613281 88.300781 109.605469 90.34375 C 105.253906 93.875 102.558594 97.984375 101.617188 100.675781 C 99.886719 105.660156 101.242188 107.917969 103.789062 108.433594 C 104.941406 108.664062 106.570312 108.136719 107.792969 107.617188 C 109.316406 107.113281 111.148438 106.273438 112.855469 105.015625 C 115.789062 102.859375 118.613281 99.835938 118.441406 95.746094 C 118.363281 93.886719 117.859375 92.039062 117.175781 90.265625 C 120.863281 88.726562 125.640625 87.871094 131.722656 88.585938 C 144.769531 90.109375 147.328125 98.253906 146.839844 101.660156 C 146.347656 105.070312 143.613281 106.945312 142.699219 107.511719 C 141.78125 108.078125 141.503906 108.273438 141.582031 108.691406 C 141.691406 109.304688 142.117188 109.28125 142.894531 109.148438 C 143.96875 108.96875 149.746094 106.378906 149.992188 100.082031 C 150.304688 92.109375 142.648438 83.335938 129.089844 83.40625 Z M 28.535156 117.304688 C 24.214844 122.019531 18.175781 123.800781 15.589844 122.300781 C 12.792969 120.679688 13.898438 113.738281 19.203125 108.738281 C 22.433594 105.691406 26.605469 102.882812 29.375 101.152344 C 30.007812 100.773438 30.929688 100.214844 32.054688 99.539062 C 32.242188 99.433594 32.347656 99.375 32.347656 99.375 L 32.34375 99.367188 C 32.558594 99.238281 32.785156 99.105469 33.011719 98.96875 C 34.941406 106.089844 33.070312 112.359375 28.535156 117.304688 Z M 60.015625 95.902344 C 58.507812 99.574219 55.359375 108.960938 53.441406 108.457031 C 51.796875 108.023438 50.792969 100.886719 53.113281 93.867188 C 54.277344 90.332031 56.773438 86.109375 58.238281 84.46875 C 60.597656 81.832031 63.195312 80.96875 63.824219 82.039062 C 64.632812 83.398438 60.960938 93.601562 60.015625 95.902344 Z M 86.023438 108.316406 C 85.386719 108.648438 84.800781 108.859375 84.53125 108.695312 C 84.328125 108.574219 84.796875 108.136719 84.796875 108.136719 C 84.796875 108.136719 88.046875 104.636719 89.332031 103.042969 C 90.074219 102.117188 90.941406 101.015625 91.882812 99.785156 C 91.890625 99.910156 91.894531 100.03125 91.894531 100.152344 C 91.882812 104.347656 87.832031 107.175781 86.023438 108.316406 Z M 106.0625 103.746094 C 105.585938 103.40625 105.664062 102.3125 107.230469 98.902344 C 107.84375 97.566406 109.246094 95.308594 111.683594 93.15625 C 111.964844 94.039062 112.140625 94.890625 112.132812 95.683594 C 112.101562 100.960938 108.335938 102.929688 106.0625 103.746094 Z M 106.0625 103.746094 "/>
</g>
</svg>
